<svg width="643" height="460" viewBox="0 0 643 460" fill="none" xmlns="http://www.w3.org/2000/svg">
<path d="M74.7724 90.9562C70.8833 85.9693 68.2688 80.1045 67.1565 73.8725C66.0443 67.6405 66.468 61.2303 68.3909 55.2001C70.3137 49.17 73.6773 43.7026 78.1888 39.2742C82.7003 34.8457 88.223 31.5905 94.2758 29.7919C88.7931 30.0216 83.4217 31.4173 78.5176 33.8863C73.6134 36.3554 69.2885 39.8415 65.8294 44.1136C62.3703 48.3858 59.8561 53.3464 58.4533 58.6667C57.0505 63.987 56.7911 69.5455 57.6925 74.974C58.5938 80.4024 60.6352 85.5768 63.6814 90.1541C66.7277 94.7315 70.7091 98.6074 75.362 101.525C80.0148 104.442 85.2328 106.335 90.6701 107.077C96.1074 107.819 101.64 107.394 106.901 105.83C100.752 106.093 94.6289 104.882 89.0408 102.295C83.4527 99.7077 78.561 95.8205 74.7724 90.9562Z" fill="#2A6D84"/>
<path d="M101.027 115.653C95.4005 118.524 89.1594 119.972 82.8473 119.871C76.5352 119.77 70.3434 118.123 64.811 115.074C59.2787 112.024 54.5735 107.665 51.1053 102.375C47.6371 97.0847 45.511 91.0246 44.9121 84.7222C44.085 90.1625 44.4203 95.7169 45.8957 101.017C47.3711 106.318 49.9529 111.244 53.4701 115.468C56.9872 119.692 61.3594 123.118 66.2968 125.52C71.2343 127.921 76.6242 129.243 82.1095 129.397C87.5948 129.551 93.0502 128.535 98.1141 126.415C103.178 124.295 107.735 121.12 111.483 117.1C115.231 113.08 118.084 108.308 119.853 103.098C121.622 97.8892 122.268 92.3623 121.746 86.8841C120.825 92.9868 118.464 98.7809 114.86 103.785C111.257 108.788 106.514 112.857 101.027 115.653Z" fill="#2A6D84"/>
<path d="M159.812 194.548C199.656 194.548 231.956 165.071 231.956 128.709C231.956 92.3464 199.656 62.8691 159.812 62.8691C119.968 62.8691 87.6675 92.3464 87.6675 128.709C87.6675 165.071 119.968 194.548 159.812 194.548Z" fill="#104253"/>
<path d="M278.66 343.858C278.66 343.858 302.962 327.103 302.962 319.487C302.962 311.871 319.669 262.368 328.782 284.454C337.895 306.54 315.872 337.765 315.872 337.765C315.872 337.765 291.57 381.937 277.142 389.553C262.713 397.169 250.562 392.599 250.562 392.599V372.036L264.445 351.43C266.017 349.098 268.134 347.188 270.612 345.868C273.091 344.548 275.854 343.858 278.66 343.858Z" fill="#F7CBC5"/>
<path d="M209.587 227.21C209.587 227.21 246.006 238.758 249.803 244.089C253.6 249.421 255.119 240.282 265.75 275.315C276.382 310.348 279.04 344.238 279.04 344.238C279.04 344.238 252.84 352.997 255.878 387.268C258.916 421.54 251.322 458.858 251.322 458.858H241.841L220.945 394.123L246.006 295.878C246.006 295.878 210.379 235.463 209.587 227.21Z" fill="#104253"/>
<path d="M197.403 195.348C222.568 195.348 242.968 174.889 242.968 149.652C242.968 124.416 222.568 103.957 197.403 103.957C172.238 103.957 151.838 124.416 151.838 149.652C151.838 174.889 172.238 195.348 197.403 195.348Z" fill="#F7CBC5"/>
<path d="M214.869 183.924C214.869 183.924 201.959 226.573 213.35 232.666C224.742 238.758 237.652 266.175 237.652 266.175L217.907 288.262H172.342L151.838 265.414L143.484 226.573L154.876 217.434C154.876 217.434 167.026 186.97 167.026 170.977C167.026 154.983 214.869 183.924 214.869 183.924Z" fill="#F7CBC5"/>
<path d="M218.666 231.142C218.666 231.142 209.553 228.858 214.869 237.997C220.185 247.136 225.501 263.891 206.516 264.652C187.53 265.414 168.545 255.513 162.47 234.95C156.394 214.387 154.116 215.91 151.838 216.672C149.56 217.434 125.258 242.566 125.258 242.566L133.612 289.785L136.65 458.857H247.524C247.524 458.857 252.08 410.116 244.486 398.692C236.892 387.268 251.321 358.328 251.321 358.328C251.321 358.328 264.231 338.526 254.359 300.447C244.486 262.367 222.463 231.142 218.666 231.142Z" fill="#CEC238"/>
<path d="M157.154 216.672C157.154 216.672 145.763 211.341 135.89 220.48C126.018 229.619 103.995 237.235 103.995 241.805C103.995 246.374 122.98 376.606 110.07 399.454C97.1602 422.301 83.4907 458.858 83.4907 458.858H146.836C146.836 458.858 157.154 420.778 167.786 400.215C178.417 379.652 177.658 321.772 174.62 304.255C171.583 286.738 157.154 216.672 157.154 216.672Z" fill="#104253"/>
<path d="M90.3257 418.493L94.024 458.858H135.068L131.334 408.593L90.3257 418.493Z" fill="#F7CBC5"/>
<path d="M277.141 397.169L287.013 458.858H506.484L525.469 334.719L277.141 397.169Z" fill="#104253"/>
<path d="M533.823 326.341L536.101 337.765L252.081 406.308V396.407L533.823 326.341Z" fill="#104253"/>
<path d="M413.836 346.904L412.317 359.851L429.024 357.566L422.189 344.619L413.836 346.904Z" fill="#104253"/>
<path d="M321.947 215.911C321.947 215.911 355.361 213.626 364.474 239.52C373.587 265.414 394.851 311.871 403.205 318.725C411.558 325.579 420.671 343.858 419.152 349.95" stroke="#104253" stroke-width="5" stroke-miterlimit="10"/>
<path d="M326.883 215.53C326.883 219.105 323.092 222.003 317.01 222.003C310.929 222.003 307.897 219.105 307.897 215.53C307.897 211.955 310.929 209.056 317.01 209.056C323.092 209.056 326.883 211.955 326.883 215.53Z" fill="#2A6D84"/>
<path d="M270.687 334.338C270.687 334.338 276.382 310.348 265.75 275.315C255.119 240.282 253.6 249.421 249.803 244.09C246.006 238.758 209.587 227.21 209.587 227.21C209.847 229.922 213.869 238.266 219.152 248.248C218.201 244.65 216.76 241.2 214.87 237.997C209.554 228.858 218.667 231.143 218.667 231.143C222.464 231.143 244.487 262.368 254.359 300.447C264.231 338.527 251.321 358.328 251.321 358.328L270.687 334.338Z" fill="#104253"/>
<path d="M209.933 226.954C209.933 226.954 214.429 244.057 218.256 246.548C222.083 249.04 244.782 272.69 244.782 272.69L241.828 253.609L229.677 235.331L226.446 232.979L209.933 226.954Z" fill="#104253"/>
<path opacity="0.1" d="M108.931 279.503L109.99 240.282C109.99 240.282 85.0095 250.944 82.7312 296.639C80.453 342.335 86.5283 428.394 94.8818 429.156C103.235 429.917 142.725 420.778 142.725 420.778C142.725 420.778 148.8 310.348 146.522 295.878C144.244 281.407 108.931 279.503 108.931 279.503Z" fill="black"/>
<path d="M110.83 240.282H104.674C104.674 240.282 79.694 250.944 77.4158 296.639C75.1375 342.335 81.2129 428.394 89.5664 429.156C97.92 429.917 137.409 420.778 137.409 420.778C137.409 420.778 143.485 310.348 141.207 295.878C138.928 281.407 110.83 240.282 110.83 240.282Z" fill="#104253"/>
<path d="M143.105 190.397C169.108 190.397 190.188 166.7 190.188 137.467C190.188 108.234 169.108 84.5365 143.105 84.5365C117.101 84.5365 96.021 108.234 96.021 137.467C96.021 166.7 117.101 190.397 143.105 190.397Z" fill="#104253"/>
<path d="M176.899 180.497C182.142 180.497 186.392 174.189 186.392 166.407C186.392 158.626 182.142 152.318 176.899 152.318C171.656 152.318 167.406 158.626 167.406 166.407C167.406 174.189 171.656 180.497 176.899 180.497Z" fill="#F7CBC5"/>
<path d="M96.0211 123.378C117.411 123.378 134.751 105.988 134.751 84.5365C134.751 63.0852 117.411 45.6954 96.0211 45.6954C74.6311 45.6954 57.291 63.0852 57.291 84.5365C57.291 105.988 74.6311 123.378 96.0211 123.378Z" fill="#104253"/>
<path d="M200.061 134.04C215.159 134.04 227.399 125.174 227.399 114.238C227.399 103.302 215.159 94.4371 200.061 94.4371C184.962 94.4371 172.722 103.302 172.722 114.238C172.722 125.174 184.962 134.04 200.061 134.04Z" fill="#104253"/>
</svg>
