<svg width="74" height="67" viewBox="0 0 74 67" fill="none" xmlns="http://www.w3.org/2000/svg">
<path d="M11.7329 38.2058L0 24.9736L35.1048 0L70.2096 24.9736L58.289 38.2058H11.7329Z" fill="#6C63FF"/>
<path d="M11.7329 38.2058L0 24.9736L35.1048 0L70.2096 24.9736L58.289 38.2058H11.7329Z" fill="#18637C"/>
<path d="M68.5201 26.6509H0V56.3769H68.5201V26.6509Z" fill="#6C63FF"/>
<path d="M68.5201 26.6509H0V56.3769H68.5201V26.6509Z" fill="#2A6D84"/>
<path d="M70.2096 67H0V24.9736L35.1048 46.0334L70.2096 24.9736V67Z" fill="#104253"/>
<path d="M61.2534 10.8857L53.8072 5.21744L34.0829 30.755L23.1281 22.4157L17.4185 29.8079L32.0954 40.9639L35.8591 43.7642L61.2534 10.8857Z" fill="#00E682"/>
<path d="M0.295751 15.5509L0.0166016 15.6862L0.0487028 15.6295L0.0242045 15.6374L0.0585584 15.6121L3.81562 8.97437L5.73615 10.6001L7.38373 12.1144L6.91066 12.3437L7.44249 13.275L0.295751 15.5509Z" fill="url(#paint0_linear)"/>
<defs>
<linearGradient id="paint0_linear" x1="5.58631" y1="15.437" x2="1.37331" y2="11.8188" gradientUnits="userSpaceOnUse">
<stop stop-color="#808080" stop-opacity="0.25"/>
<stop offset="0.53514" stop-color="#808080" stop-opacity="0.12"/>
<stop offset="1" stop-color="#808080" stop-opacity="0.1"/>
</linearGradient>
</defs>
</svg>
