<svg width="31" height="39" viewBox="0 0 31 39" fill="none" xmlns="http://www.w3.org/2000/svg">
<path d="M7.1 14.42C6.51333 14.42 6.04667 14.2933 5.7 14.04C5.36667 13.7733 5.16667 13.3867 5.1 12.88L4.94 12.82C4.51333 13.26 4.1 13.6267 3.7 13.92C3.3 14.2 2.98 14.34 2.74 14.34C1.95333 14.34 1.3 14.0667 0.78 13.52C0.26 12.96 0 12.2667 0 11.44C0 11.0267 0.106667 10.6733 0.32 10.38C0.533333 10.0733 0.813333 9.87333 1.16 9.78L5.02 8.88L5.04 8.4C5.04 7.82667 4.88667 7.38 4.58 7.06C4.27333 6.74 3.85333 6.58 3.32 6.58C2.96 6.58 2.56667 6.67333 2.14 6.86C1.72667 7.03333 1.34 7.25333 0.98 7.52L0.8 7.44L0.46 6.24C1.12667 5.86667 1.82667 5.52 2.56 5.2C3.29333 4.88 3.81333 4.72 4.12 4.72C5.22667 4.72 6.05333 4.97333 6.6 5.48C7.16 5.97333 7.44 6.62667 7.44 7.44C7.44 7.73333 7.38 8.33333 7.26 9.24C7.11333 10.5333 7.04 11.3067 7.04 11.56C7.04 11.8133 7.10667 12.0133 7.24 12.16C7.37333 12.3067 7.54667 12.38 7.76 12.38C7.92 12.38 8.08667 12.3467 8.26 12.28C8.44667 12.2 8.6 12.12 8.72 12.04L9.02 12.46C8.78 12.8867 8.48 13.3 8.12 13.7C7.77333 14.0867 7.43333 14.3267 7.1 14.42ZM3.48 12.44C3.68 12.44 3.91333 12.3867 4.18 12.28C4.46 12.1733 4.70667 12.0333 4.92 11.86L4.98 9.96L2.84 10.56C2.52 10.64 2.36 10.86 2.36 11.22C2.36 11.5667 2.46 11.86 2.66 12.1C2.87333 12.3267 3.14667 12.44 3.48 12.44Z" fill="#104253"/>
<path d="M9.82797 13.14C10.2146 13.0733 10.4946 12.9467 10.668 12.76C10.8546 12.56 10.948 12.2733 10.948 11.9V7.58C10.948 7.15333 10.888 6.86 10.768 6.7C10.648 6.54 10.428 6.46 10.108 6.46C10.0146 6.46 9.9213 6.46667 9.82797 6.48C9.73464 6.49333 9.67464 6.50667 9.64797 6.52L9.76797 5.38C10.5146 5.27333 11.2746 5.15333 12.048 5.02C12.8213 4.87333 13.3213 4.77333 13.548 4.72L13.728 5.04C13.5813 5.33333 13.4613 6.14 13.368 7.46C13.288 8.76667 13.248 10.3067 13.248 12.08C13.248 12.4 13.2946 12.6267 13.388 12.76C13.4813 12.8933 13.6413 12.96 13.868 12.96C13.988 12.96 14.1013 12.9533 14.208 12.94C14.328 12.9267 14.408 12.92 14.448 12.92L14.508 13.02L14.308 14.24C14.1613 14.2267 13.868 14.2133 13.428 14.2C13.0013 14.1867 12.5613 14.18 12.108 14.18C11.6946 14.18 11.2213 14.2067 10.688 14.26C10.168 14.3267 9.82797 14.3733 9.66797 14.4L9.82797 13.14ZM11.928 3C11.488 3 11.148 2.87333 10.908 2.62C10.668 2.36667 10.548 2.02667 10.548 1.6C10.548 1.12 10.688 0.733334 10.968 0.44C11.2613 0.146667 11.648 0 12.128 0C12.5546 0 12.888 0.133334 13.128 0.400001C13.368 0.653334 13.488 0.993334 13.488 1.42C13.488 1.88667 13.3413 2.26667 13.048 2.56C12.768 2.85333 12.3946 3 11.928 3Z" fill="#104253"/>
<path d="M2.86 26.42C2.38 26.42 1.94 26.38 1.54 26.3C1.15333 26.22 0.846667 26.14 0.62 26.06C0.393333 25.9667 0.253333 25.9067 0.2 25.88L0.08 25.68C0.133333 25.32 0.18 24.9 0.22 24.42C0.273333 23.94 0.313333 23.48 0.34 23.04L1.44 22.94C1.45333 24.2867 2.04667 24.96 3.22 24.96C3.60667 24.96 3.92667 24.88 4.18 24.72C4.43333 24.5467 4.56 24.3333 4.56 24.08C4.56 23.8133 4.42667 23.5733 4.16 23.36C3.89333 23.1333 3.36 22.8267 2.56 22.44C1.76 22.0667 1.18 21.6733 0.82 21.26C0.46 20.8333 0.28 20.34 0.28 19.78C0.28 19.18 0.453333 18.6533 0.8 18.2C1.14667 17.7333 1.63333 17.3733 2.26 17.12C2.88667 16.8533 3.6 16.72 4.4 16.72C4.78667 16.72 5.14667 16.7467 5.48 16.8C5.81333 16.8533 6.07333 16.9133 6.26 16.98C6.46 17.0333 6.58667 17.0667 6.64 17.08L6.74 17.28C6.71333 17.4267 6.65333 17.76 6.56 18.28C6.48 18.7867 6.41333 19.3133 6.36 19.86L5.24 19.94L5.26 19.58C5.26 19.1133 5.14667 18.7733 4.92 18.56C4.69333 18.3333 4.34 18.22 3.86 18.22C3.51333 18.22 3.22 18.3067 2.98 18.48C2.74 18.64 2.62 18.8467 2.62 19.1C2.62 19.3533 2.72667 19.5867 2.94 19.8C3.15333 20.0133 3.50667 20.24 4 20.48C4.78667 20.8533 5.38667 21.1867 5.8 21.48C6.22667 21.7733 6.52 22.0733 6.68 22.38C6.85333 22.6733 6.94 23.0267 6.94 23.44C6.94 23.9867 6.76 24.4867 6.4 24.94C6.04 25.3933 5.54667 25.7533 4.92 26.02C4.29333 26.2867 3.60667 26.42 2.86 26.42Z" fill="#104253"/>
<path d="M9.12406 19.44C9.12406 19.0933 9.07073 18.8467 8.96406 18.7C8.8574 18.54 8.68406 18.46 8.44406 18.46C8.32406 18.46 8.2174 18.4667 8.12406 18.48C8.03073 18.4933 7.97073 18.5067 7.94406 18.52L8.06406 17.36C8.7574 17.2667 9.4774 17.1533 10.2241 17.02C10.9707 16.8733 11.4574 16.7733 11.6841 16.72L11.8641 17.04C11.7174 17.3733 11.5907 18.1067 11.4841 19.24C11.3774 20.36 11.3241 21.52 11.3241 22.72C11.3241 23.2667 11.4241 23.6733 11.6241 23.94C11.8374 24.2067 12.1574 24.34 12.5841 24.34C12.8507 24.34 13.1107 24.28 13.3641 24.16C13.6307 24.0267 13.9507 23.8333 14.3241 23.58V19.46C14.3241 19.0867 14.2641 18.8333 14.1441 18.7C14.0374 18.5667 13.8107 18.4933 13.4641 18.48L13.1041 18.5L13.2641 17.36C13.9841 17.2667 14.7241 17.1533 15.4841 17.02C16.2574 16.8867 16.7574 16.8 16.9841 16.76L17.1641 17.08C17.0174 17.3867 16.8907 18.1667 16.7841 19.42C16.6774 20.6733 16.6241 22.0533 16.6241 23.56C16.6241 23.8133 16.6907 24.0133 16.8241 24.16C16.9574 24.3067 17.1307 24.38 17.3441 24.38C17.4907 24.38 17.6307 24.3533 17.7641 24.3C17.9107 24.2467 18.0307 24.1933 18.1241 24.14C18.2174 24.0867 18.2774 24.0533 18.3041 24.04L18.6041 24.44C18.5507 24.5333 18.4174 24.7267 18.2041 25.02C17.9907 25.3 17.7307 25.5867 17.4241 25.88C17.1174 26.1733 16.8241 26.3533 16.5441 26.42C15.3307 26.42 14.6507 25.9067 14.5041 24.88L14.3441 24.8C13.8374 25.2667 13.3707 25.6533 12.9441 25.96C12.5307 26.2533 12.2507 26.4 12.1041 26.4C11.0907 26.4 10.3174 26.1867 9.78406 25.76C9.25073 25.3333 8.98406 24.7133 8.98406 23.9L9.12406 19.44Z" fill="#104253"/>
<path d="M24.922 25.1C25.2554 25.0333 25.4887 24.9133 25.622 24.74C25.7687 24.5667 25.8487 24.3133 25.862 23.98L25.922 20.52C25.922 19.9333 25.8154 19.5 25.602 19.22C25.3887 18.9267 25.062 18.78 24.622 18.78C24.1154 18.78 23.5287 19.0333 22.862 19.54C22.7287 21.94 22.662 23.44 22.662 24.04C22.662 24.3733 22.702 24.6067 22.782 24.74C22.8754 24.8733 23.0354 24.94 23.262 24.94L23.802 24.92L23.842 25L23.642 26.24C23.4954 26.2267 23.2154 26.2133 22.802 26.2C22.402 26.1867 21.982 26.18 21.542 26.18C21.1154 26.18 20.6487 26.1933 20.142 26.22C19.6487 26.26 19.3287 26.2867 19.182 26.3L19.342 25.06C19.7287 25.02 19.9954 24.92 20.142 24.76C20.302 24.5867 20.382 24.3133 20.382 23.94V19.7C20.382 19.2333 20.3087 18.92 20.162 18.76C20.0287 18.5867 19.7754 18.5 19.402 18.5H19.142L19.062 18.4L19.162 17.36C19.922 17.2533 20.6687 17.1267 21.402 16.98C22.1487 16.8333 22.6287 16.74 22.842 16.7L23.002 16.9C22.9754 16.98 22.9354 17.16 22.882 17.44C22.8287 17.72 22.7954 18 22.782 18.28L22.862 18.36C23.2754 18 23.7487 17.64 24.282 17.28C24.8287 16.9067 25.222 16.72 25.462 16.72C26.4087 16.72 27.142 16.9467 27.662 17.4C28.1954 17.8533 28.462 18.4867 28.462 19.3C28.462 19.5 28.4087 20.2 28.302 21.4C28.1687 22.76 28.102 23.6333 28.102 24.02C28.102 24.3667 28.1487 24.6133 28.242 24.76C28.3487 24.9067 28.5087 24.98 28.722 24.98C28.8554 24.98 28.982 24.9733 29.102 24.96C29.222 24.9467 29.302 24.94 29.342 24.94L29.382 25.02L29.202 26.24C29.042 26.2267 28.7487 26.2133 28.322 26.2C27.9087 26.1867 27.482 26.18 27.042 26.18C26.722 26.18 26.3087 26.2 25.802 26.24C25.3087 26.2933 24.982 26.3267 24.822 26.34L24.922 25.1Z" fill="#104253"/>
<path d="M2.86 38.42C2.38 38.42 1.94 38.38 1.54 38.3C1.15333 38.22 0.846667 38.14 0.62 38.06C0.393333 37.9667 0.253333 37.9067 0.2 37.88L0.08 37.68C0.133333 37.32 0.18 36.9 0.22 36.42C0.273333 35.94 0.313333 35.48 0.34 35.04L1.44 34.94C1.45333 36.2867 2.04667 36.96 3.22 36.96C3.60667 36.96 3.92667 36.88 4.18 36.72C4.43333 36.5467 4.56 36.3333 4.56 36.08C4.56 35.8133 4.42667 35.5733 4.16 35.36C3.89333 35.1333 3.36 34.8267 2.56 34.44C1.76 34.0667 1.18 33.6733 0.82 33.26C0.46 32.8333 0.28 32.34 0.28 31.78C0.28 31.18 0.453333 30.6533 0.8 30.2C1.14667 29.7333 1.63333 29.3733 2.26 29.12C2.88667 28.8533 3.6 28.72 4.4 28.72C4.78667 28.72 5.14667 28.7467 5.48 28.8C5.81333 28.8533 6.07333 28.9133 6.26 28.98C6.46 29.0333 6.58667 29.0667 6.64 29.08L6.74 29.28C6.71333 29.4267 6.65333 29.76 6.56 30.28C6.48 30.7867 6.41333 31.3133 6.36 31.86L5.24 31.94L5.26 31.58C5.26 31.1133 5.14667 30.7733 4.92 30.56C4.69333 30.3333 4.34 30.22 3.86 30.22C3.51333 30.22 3.22 30.3067 2.98 30.48C2.74 30.64 2.62 30.8467 2.62 31.1C2.62 31.3533 2.72667 31.5867 2.94 31.8C3.15333 32.0133 3.50667 32.24 4 32.48C4.78667 32.8533 5.38667 33.1867 5.8 33.48C6.22667 33.7733 6.52 34.0733 6.68 34.38C6.85333 34.6733 6.94 35.0267 6.94 35.44C6.94 35.9867 6.76 36.4867 6.4 36.94C6.04 37.3933 5.54667 37.7533 4.92 38.02C4.29333 38.2867 3.60667 38.42 2.86 38.42Z" fill="#104253"/>
<path d="M12.6641 38.42C11.2641 38.42 10.1574 38.0133 9.34406 37.2C8.54406 36.3733 8.14406 35.2467 8.14406 33.82C8.14406 32.86 8.35073 31.9933 8.76406 31.22C9.1774 30.4467 9.74406 29.84 10.4641 29.4C11.1841 28.9467 11.9841 28.72 12.8641 28.72C15.1041 28.72 16.2241 29.8533 16.2241 32.12C16.2241 32.52 16.1774 32.8933 16.0841 33.24L15.8441 33.48H10.6641C10.6774 34.4533 10.9041 35.2 11.3441 35.72C11.7974 36.2267 12.4241 36.48 13.2241 36.48C13.9174 36.48 14.7107 36.28 15.6041 35.88L15.7441 35.96L16.0641 36.94C15.5707 37.3133 14.9974 37.6533 14.3441 37.96C13.7041 38.2667 13.1441 38.42 12.6641 38.42ZM13.4041 32.22C13.5641 32.2067 13.6641 32.1733 13.7041 32.12C13.7574 32.0667 13.7841 31.9467 13.7841 31.76C13.7841 30.7733 13.3641 30.28 12.5241 30.28C12.0041 30.28 11.5774 30.46 11.2441 30.82C10.9241 31.18 10.7307 31.7 10.6641 32.38L13.4041 32.22Z" fill="#104253"/>
<path d="M20.9823 38.42C20.0357 38.42 19.3423 38.2267 18.9023 37.84C18.4623 37.44 18.2423 36.8133 18.2423 35.96V31.5C18.2423 31.0733 18.169 30.7933 18.0223 30.66C17.8757 30.5133 17.589 30.4333 17.1623 30.42L16.9623 30.28L17.1023 29.3C17.609 29.06 18.109 28.7867 18.6023 28.48C19.0957 28.16 19.5023 27.88 19.8223 27.64C20.1557 27.4 20.3623 27.2467 20.4423 27.18L21.0023 27.46C20.989 27.54 20.9557 27.7333 20.9023 28.04C20.8623 28.3467 20.8223 28.7267 20.7823 29.18L23.1423 29.12L23.2223 29.22L23.0223 30.56L20.6623 30.5C20.5823 31.66 20.5423 33.1133 20.5423 34.86C20.5423 35.4333 20.6423 35.8467 20.8423 36.1C21.0423 36.3533 21.369 36.48 21.8223 36.48C22.0623 36.48 22.3023 36.44 22.5423 36.36C22.7957 36.28 22.9557 36.2267 23.0223 36.2L23.2823 36.84C23.2023 36.92 23.009 37.0867 22.7023 37.34C22.409 37.5933 22.089 37.84 21.7423 38.08C21.409 38.3067 21.1557 38.42 20.9823 38.42Z" fill="#104253"/>
<path d="M26.903 38.42C26.423 38.42 25.983 38.38 25.583 38.3C25.1963 38.22 24.8896 38.14 24.663 38.06C24.4363 37.9667 24.2963 37.9067 24.243 37.88L24.123 37.68C24.1763 37.32 24.223 36.9 24.263 36.42C24.3163 35.94 24.3563 35.48 24.383 35.04L25.483 34.94C25.4963 36.2867 26.0896 36.96 27.263 36.96C27.6496 36.96 27.9696 36.88 28.223 36.72C28.4763 36.5467 28.603 36.3333 28.603 36.08C28.603 35.8133 28.4696 35.5733 28.203 35.36C27.9363 35.1333 27.403 34.8267 26.603 34.44C25.803 34.0667 25.223 33.6733 24.863 33.26C24.503 32.8333 24.323 32.34 24.323 31.78C24.323 31.18 24.4963 30.6533 24.843 30.2C25.1896 29.7333 25.6763 29.3733 26.303 29.12C26.9296 28.8533 27.643 28.72 28.443 28.72C28.8296 28.72 29.1896 28.7467 29.523 28.8C29.8563 28.8533 30.1163 28.9133 30.303 28.98C30.503 29.0333 30.6296 29.0667 30.683 29.08L30.783 29.28C30.7563 29.4267 30.6963 29.76 30.603 30.28C30.523 30.7867 30.4563 31.3133 30.403 31.86L29.283 31.94L29.303 31.58C29.303 31.1133 29.1896 30.7733 28.963 30.56C28.7363 30.3333 28.383 30.22 27.903 30.22C27.5563 30.22 27.263 30.3067 27.023 30.48C26.783 30.64 26.663 30.8467 26.663 31.1C26.663 31.3533 26.7696 31.5867 26.983 31.8C27.1963 32.0133 27.5496 32.24 28.043 32.48C28.8296 32.8533 29.4296 33.1867 29.843 33.48C30.2696 33.7733 30.563 34.0733 30.723 34.38C30.8963 34.6733 30.983 35.0267 30.983 35.44C30.983 35.9867 30.803 36.4867 30.443 36.94C30.083 37.3933 29.5896 37.7533 28.963 38.02C28.3363 38.2867 27.6496 38.42 26.903 38.42Z" fill="#104253"/>
</svg>
