<svg width="352" height="285" viewBox="0 0 352 285" fill="none" xmlns="http://www.w3.org/2000/svg">
<path d="M41.568 21.768C41.44 22.4933 41.2053 23.9013 40.864 25.992C40.5653 28.0827 40.224 30.408 39.84 32.968C42.3147 32.8827 44.5547 32.8187 46.56 32.776C48.5653 32.6907 49.9093 32.6267 50.592 32.584L50.912 33.416L49.248 40.52L38.88 40.584L37.728 50.568L30.816 51.592L30.176 51.08C30.2613 50.44 30.4107 49.16 30.624 47.24C30.88 45.32 31.1787 43.1013 31.52 40.584L21.216 40.648L20.768 39.88L22.624 32.904L32.416 32.968L33.824 22.024L40.8 21.32L41.568 21.768Z" fill="#F4EFDF"/>
<path d="M80.4085 44.68C78.3605 47.4107 76.4192 49.608 74.5845 51.272C72.7925 52.936 71.4058 53.768 70.4245 53.768C68.1632 53.768 66.4138 53.2347 65.1765 52.168C63.9392 51.0587 63.3205 49.5013 63.3205 47.496C63.3205 47.0267 63.3418 46.664 63.3845 46.408L66.4565 28.744L65.9445 28.296L62.1685 28.232L61.9765 27.912L62.4245 24.392L67.1605 23.688C67.4165 21.9813 67.6298 20.4453 67.8005 19.08C67.9712 17.7147 68.0778 16.8187 68.1205 16.392L77.4005 14.152L78.1045 14.92C77.9765 15.432 77.6778 16.5627 77.2085 18.312C76.7818 20.0613 76.3765 21.8747 75.9925 23.752L82.5845 23.688L82.9685 24.072L82.2645 28.232L75.8005 28.168L74.9685 28.616L72.2805 43.08L72.2165 43.72C72.2165 44.6587 72.6432 45.128 73.4965 45.128C73.9658 45.128 74.5205 44.8933 75.1605 44.424C75.8432 43.912 76.7818 43.0373 77.9765 41.8L79.2565 41.992L80.4085 44.68ZM106.368 44.936C106.624 44.936 107.008 44.744 107.52 44.36C108.075 43.9333 108.992 43.144 110.272 41.992L111.488 42.184L112.64 44.808C109.312 48.3493 106.816 50.7387 105.152 51.976C103.488 53.1707 101.909 53.768 100.416 53.768C99.4773 53.768 98.752 53.5333 98.24 53.064C97.728 52.5947 97.472 51.9333 97.472 51.08C97.472 50.312 98.1333 47.1547 99.456 41.608L98.88 41.544C97.0453 44.7867 95.3813 47.368 93.888 49.288C92.3947 51.1653 90.88 52.6587 89.344 53.768C86.7413 53.768 84.6933 52.936 83.2 51.272C81.7493 49.5653 81.024 47.1973 81.024 44.168C81.024 40.7973 81.792 37.4907 83.328 34.248C84.9067 30.9627 86.912 28.2747 89.344 26.184C91.776 24.0933 94.2507 23.048 96.768 23.048L101.952 24.2L102.336 22.856L103.296 22.28L109.888 23.112L110.4 24.392C108.395 32.5413 106.987 39.3253 106.176 44.744L106.368 44.936ZM91.776 45.256C92.5867 45.256 93.8453 43.7413 95.552 40.712C97.3013 37.64 98.816 34.248 100.096 30.536C99.2 29.9813 98.2827 29.5547 97.344 29.256C96.4053 28.9147 95.5947 28.744 94.912 28.744C94.1867 28.744 93.4827 29.32 92.8 30.472C92.16 31.5813 91.6267 33.0533 91.2 34.888C90.7733 36.68 90.56 38.4933 90.56 40.328C90.56 41.7787 90.6667 42.9733 90.88 43.912C91.136 44.808 91.4347 45.256 91.776 45.256ZM123.892 44.936C124.148 44.936 124.553 44.7227 125.108 44.296C125.663 43.8267 126.559 43.0587 127.796 41.992L129.012 42.184L130.164 44.808C127.135 48.136 124.724 50.4613 122.932 51.784C121.183 53.1067 119.561 53.768 118.068 53.768C115.721 53.768 114.548 52.5733 114.548 50.184C114.548 49.7573 114.889 47.304 115.572 42.824C116.297 38.344 116.873 34.76 117.3 32.072C119.263 20.1253 120.244 13.768 120.244 13C120.244 12.1893 120.073 11.6133 119.732 11.272C119.391 10.9307 118.815 10.76 118.004 10.76H115.956L116.596 6.344C118.772 6.344 121.289 6.25866 124.148 6.088C127.049 5.91733 128.948 5.78933 129.844 5.704L130.74 6.792C130.484 8.11466 129.887 11.1013 128.948 15.752C128.009 20.36 127.007 25.48 125.94 31.112C124.916 36.744 124.169 41.288 123.7 44.744L123.892 44.936ZM145.735 39.624C147.442 38.6853 148.871 37.7467 150.023 36.808C151.175 35.8693 151.751 34.696 151.751 33.288C151.751 32.136 151.26 31.56 150.279 31.56C149.34 31.56 148.018 32.968 146.311 35.784C144.604 38.5573 142.898 42.12 141.191 46.472L140.679 50.696C140.594 51.4213 139.74 52.0827 138.119 52.68C136.498 53.2347 134.748 53.512 132.871 53.512L131.847 52.296C132.487 48.4133 133.66 41.1173 135.367 30.408C137.074 19.6987 137.927 13.8747 137.927 12.936C137.927 12.168 137.735 11.6133 137.351 11.272C137.01 10.9307 136.434 10.76 135.623 10.76H133.575L134.215 6.344C136.391 6.344 138.93 6.25866 141.831 6.088C144.732 5.91733 146.631 5.78933 147.527 5.704L148.423 6.856C148.252 7.66667 147.847 9.58666 147.207 12.616C146.567 15.6027 145.82 19.2293 144.967 23.496C144.156 27.72 143.452 31.752 142.855 35.592H143.239C144.818 32.1787 146.375 29.3413 147.911 27.08C149.49 24.8187 150.983 23.24 152.391 22.344C154.994 22.344 157.063 22.9627 158.599 24.2C160.178 25.4373 160.967 27.08 160.967 29.128C160.967 31.0907 160.284 33.0533 158.919 35.016C157.554 36.9787 155.57 38.8347 152.967 40.584C153.991 42.5893 155.143 44.7227 156.423 46.984C157.746 49.2027 158.599 50.632 158.983 51.272L158.855 52.424L150.407 54.024L149.575 53.576L145.223 40.712L145.735 39.624ZM41.568 85.768C41.44 86.4933 41.2053 87.9013 40.864 89.992C40.5653 92.0827 40.224 94.408 39.84 96.968C42.3147 96.8827 44.5547 96.8187 46.56 96.776C48.5653 96.6907 49.9093 96.6267 50.592 96.584L50.912 97.416L49.248 104.52L38.88 104.584L37.728 114.568L30.816 115.592L30.176 115.08C30.2613 114.44 30.4107 113.16 30.624 111.24C30.88 109.32 31.1787 107.101 31.52 104.584L21.216 104.648L20.768 103.88L22.624 96.904L32.416 96.968L33.824 86.024L40.8 85.32L41.568 85.768ZM75.4805 109.384C77.9552 104.179 79.6405 100.168 80.5365 97.352L79.1925 89.224L79.7685 88.136L87.6405 86.408C88.2378 86.9627 88.7072 87.752 89.0485 88.776C89.3898 89.8 89.5605 90.888 89.5605 92.04C89.5605 92.68 89.4965 93.2987 89.3685 93.896C89.2405 94.4507 89.0058 95.2827 88.6645 96.392L89.7525 109.384H90.7125C94.1685 102.216 95.8965 97.4587 95.8965 95.112C95.8965 94.1307 95.5978 93.2347 95.0005 92.424C94.4458 91.5707 93.6565 90.9307 92.6325 90.504L93.2085 88.008L103.193 86.408C103.747 86.9627 104.195 87.7947 104.537 88.904C104.878 90.0133 105.049 91.1867 105.049 92.424C105.049 94.728 104.003 97.9067 101.913 101.96C99.8645 106.013 96.7072 111.091 92.4405 117.192L84.9525 117.768L83.8005 116.616L82.9045 106.76H82.2645C80.6858 110.216 78.8512 113.693 76.7605 117.192L68.3765 117.768L67.2885 116.616C67.0752 113.032 66.7125 109.107 66.2005 104.84C65.7312 100.573 65.2405 97.0533 64.7285 94.28C64.6005 93.4693 64.3872 92.9147 64.0885 92.616C63.8325 92.3173 63.4058 92.168 62.8085 92.168C62.4672 92.168 62.0832 92.1893 61.6565 92.232C61.2298 92.2747 60.8032 92.296 60.3765 92.296L60.6965 88.008C63.2992 87.7093 67.3525 87.3253 72.8565 86.856L73.5605 87.432C74.2005 93.576 74.5205 100.893 74.5205 109.384H75.4805ZM116.023 117.768C112.866 117.768 110.391 116.723 108.599 114.632C106.807 112.541 105.911 109.619 105.911 105.864C105.911 102.152 106.615 98.824 108.023 95.88C109.431 92.8933 111.372 90.568 113.847 88.904C116.364 87.24 119.202 86.408 122.359 86.408C125.644 86.408 128.162 87.3893 129.911 89.352C131.66 91.3147 132.535 94.1093 132.535 97.736C132.535 101.576 131.831 105.032 130.423 108.104C129.015 111.133 127.052 113.501 124.535 115.208C122.06 116.915 119.223 117.768 116.023 117.768ZM118.583 111.944C120.076 111.944 121.186 111.027 121.911 109.192C122.679 107.357 123.063 104.435 123.063 100.424C123.063 97.9067 122.786 96.0293 122.231 94.792C121.719 93.5547 120.908 92.936 119.799 92.936C116.77 92.936 115.255 96.456 115.255 103.496C115.255 106.397 115.532 108.531 116.087 109.896C116.642 111.261 117.474 111.944 118.583 111.944ZM136.498 116.296C136.839 114.248 137.479 110.344 138.418 104.584C139.399 98.824 139.89 95.4107 139.89 94.344C139.89 92.8933 139.122 92.168 137.586 92.168H135.538L136.242 87.752C138.375 87.752 140.85 87.6667 143.666 87.496C146.524 87.3253 148.402 87.1973 149.298 87.112L150.13 88.328C149.959 88.8827 149.596 90.1627 149.042 92.168C148.53 94.1733 148.124 96.1573 147.826 98.12L148.21 98.056C149.874 94.5147 151.623 91.7413 153.458 89.736C155.335 87.688 157.17 86.6427 158.962 86.6C159.346 86.8133 159.708 87.1547 160.05 87.624C160.391 88.0933 160.626 88.6053 160.754 89.16C160.668 90.3547 160.434 91.8053 160.05 93.512C159.666 95.2187 159.282 96.7333 158.898 98.056C158.556 99.336 158.322 100.168 158.194 100.552L154.802 100.616C154.844 100.317 154.866 99.912 154.866 99.4C154.866 98.12 154.524 97.48 153.842 97.48C152.818 97.48 151.602 98.5253 150.194 100.616C148.786 102.707 147.399 105.565 146.034 109.192L145.33 114.696C145.244 115.379 144.391 116.019 142.77 116.616C141.148 117.213 139.399 117.512 137.522 117.512L136.498 116.296ZM173.673 103.624C175.379 102.685 176.809 101.747 177.961 100.808C179.113 99.8693 179.689 98.696 179.689 97.288C179.689 96.136 179.198 95.56 178.217 95.56C177.278 95.56 175.955 96.968 174.249 99.784C172.542 102.557 170.835 106.12 169.129 110.472L168.617 114.696C168.531 115.421 167.678 116.083 166.057 116.68C164.435 117.235 162.686 117.512 160.809 117.512L159.785 116.296C160.425 112.413 161.598 105.117 163.305 94.408C165.011 83.6987 165.865 77.8747 165.865 76.936C165.865 76.168 165.673 75.6133 165.289 75.272C164.947 74.9307 164.371 74.76 163.561 74.76H161.513L162.153 70.344C164.329 70.344 166.867 70.2587 169.769 70.088C172.67 69.9173 174.569 69.7893 175.465 69.704L176.361 70.856C176.19 71.6667 175.785 73.5867 175.145 76.616C174.505 79.6027 173.758 83.2293 172.905 87.496C172.094 91.72 171.39 95.752 170.793 99.592H171.177C172.755 96.1787 174.313 93.3413 175.849 91.08C177.427 88.8187 178.921 87.24 180.329 86.344C182.931 86.344 185.001 86.9627 186.537 88.2C188.115 89.4373 188.905 91.08 188.905 93.128C188.905 95.0907 188.222 97.0533 186.857 99.016C185.491 100.979 183.507 102.835 180.905 104.584C181.929 106.589 183.081 108.723 184.361 110.984C185.683 113.203 186.537 114.632 186.921 115.272L186.793 116.424L178.345 118.024L177.513 117.576L173.161 104.712L173.673 103.624ZM194.235 106.376C194.32 107.912 194.875 109.171 195.899 110.152C196.923 111.133 198.203 111.624 199.739 111.624C200.677 111.624 201.424 111.411 201.979 110.984C202.576 110.557 202.875 109.981 202.875 109.256C202.875 108.531 202.533 107.891 201.851 107.336C201.211 106.739 200.187 106.056 198.779 105.288C196.816 104.093 195.301 102.941 194.235 101.832C193.211 100.68 192.699 99.1653 192.699 97.288C192.699 95.24 193.275 93.4053 194.427 91.784C195.579 90.12 197.136 88.8187 199.099 87.88C201.104 86.8987 203.323 86.408 205.755 86.408C207.461 86.408 209.083 86.6427 210.619 87.112C212.197 87.5813 213.477 88.2213 214.459 89.032C213.349 91.848 212.176 94.2587 210.939 96.264H209.595C209.125 95.1973 208.507 94.3653 207.739 93.768C206.971 93.128 206.139 92.808 205.243 92.808C204.517 92.808 203.899 93.0427 203.387 93.512C202.875 93.9387 202.619 94.472 202.619 95.112C202.619 95.624 202.768 96.0933 203.067 96.52C203.408 96.904 203.899 97.3093 204.539 97.736C204.88 97.992 205.477 98.376 206.331 98.888C208.336 100.04 209.872 101.192 210.939 102.344C212.048 103.453 212.603 104.947 212.603 106.824C212.603 108.829 211.984 110.685 210.747 112.392C209.552 114.056 207.888 115.379 205.755 116.36C203.664 117.299 201.339 117.768 198.779 117.768C196.389 117.768 194.32 117.405 192.571 116.68C190.864 115.955 189.797 114.995 189.37 113.8C189.584 112.691 190.032 111.368 190.715 109.832C191.397 108.296 192.08 107.123 192.763 106.312L194.235 106.376ZM240.431 108.808C240.644 108.808 241.028 108.595 241.583 108.168C242.18 107.699 243.076 106.931 244.271 105.864L245.551 106.056L246.639 108.68C243.567 112.008 241.135 114.333 239.343 115.656C237.593 116.979 235.993 117.64 234.543 117.64C233.348 117.64 232.452 117.384 231.855 116.872C231.3 116.36 231.023 115.549 231.023 114.44C231.023 113.288 231.727 110.472 233.135 105.992C233.817 103.816 234.329 102.045 234.671 100.68C235.012 99.3147 235.183 98.2907 235.183 97.608C235.183 96.968 235.055 96.4773 234.799 96.136C234.543 95.752 234.201 95.56 233.775 95.56C232.879 95.56 231.62 96.968 229.999 99.784C228.377 102.557 226.756 106.12 225.135 110.472L224.559 114.696C224.473 115.421 223.62 116.083 221.999 116.68C220.377 117.235 218.628 117.512 216.751 117.512L215.727 116.296C216.324 112.669 217.412 105.736 218.991 95.496C220.612 85.256 221.551 79.2187 221.807 77.384C221.892 76.4453 221.764 75.784 221.423 75.4C221.081 74.9733 220.463 74.76 219.567 74.76H217.519L218.159 70.344C220.335 70.344 222.873 70.2587 225.775 70.088C228.676 69.9173 230.575 69.7893 231.471 69.704L232.303 70.856C232.132 71.6667 231.727 73.5867 231.087 76.616C230.447 79.6027 229.7 83.2293 228.847 87.496C228.036 91.72 227.332 95.752 226.735 99.592H227.183C230.425 92.5947 233.476 88.1787 236.335 86.344C238.809 86.344 240.793 86.9627 242.287 88.2C243.78 89.3947 244.527 90.9947 244.527 93C244.527 93.8533 244.335 94.9627 243.951 96.328C243.567 97.6507 242.927 99.7413 242.031 102.6C240.964 105.885 240.367 107.891 240.239 108.616L240.431 108.808ZM258.586 117.768C255.428 117.768 252.954 116.723 251.161 114.632C249.37 112.541 248.474 109.619 248.474 105.864C248.474 102.152 249.178 98.824 250.586 95.88C251.994 92.8933 253.935 90.568 256.41 88.904C258.927 87.24 261.764 86.408 264.922 86.408C268.207 86.408 270.724 87.3893 272.474 89.352C274.223 91.3147 275.098 94.1093 275.098 97.736C275.098 101.576 274.394 105.032 272.986 108.104C271.578 111.133 269.615 113.501 267.098 115.208C264.623 116.915 261.786 117.768 258.586 117.768ZM261.146 111.944C262.639 111.944 263.748 111.027 264.474 109.192C265.242 107.357 265.626 104.435 265.626 100.424C265.626 97.9067 265.348 96.0293 264.794 94.792C264.282 93.5547 263.471 92.936 262.362 92.936C259.332 92.936 257.818 96.456 257.818 103.496C257.818 106.397 258.095 108.531 258.65 109.896C259.204 111.261 260.036 111.944 261.146 111.944ZM275.028 127.752C276.137 127.624 276.948 127.283 277.46 126.728C277.972 126.173 278.399 125.107 278.74 123.528C279.38 120.797 280.297 115.613 281.492 107.976C282.687 100.296 283.284 95.7733 283.284 94.408C283.284 93.64 283.092 93.0853 282.708 92.744C282.367 92.36 281.791 92.168 280.98 92.168H278.932L279.572 87.752C283.199 87.752 287.572 87.5387 292.692 87.112L293.588 88.2C292.521 91.272 291.604 94.8773 290.836 99.016L291.348 99.08C292.927 95.9227 294.441 93.3413 295.892 91.336C297.343 89.288 298.836 87.6453 300.372 86.408C303.231 86.408 305.471 87.3253 307.092 89.16C308.756 90.952 309.588 93.4053 309.588 96.52C309.588 99.7627 308.82 102.984 307.284 106.184C305.748 109.384 303.764 112.008 301.332 114.056C298.943 116.104 296.532 117.128 294.1 117.128L287.956 115.976L286.804 123.976C286.761 124.232 286.74 124.595 286.74 125.064C286.74 125.875 286.932 126.408 287.316 126.664C287.743 126.963 288.468 127.112 289.492 127.112H292.372L292.436 127.496L291.604 131.656C286.356 131.656 280.553 131.805 274.196 132.104L275.028 127.752ZM298.644 94.152C297.876 94.152 296.681 95.6453 295.06 98.632C293.439 101.619 291.967 105.032 290.644 108.872C291.455 109.384 292.393 109.811 293.46 110.152C294.527 110.451 295.444 110.6 296.212 110.6C296.809 110.6 297.407 110.045 298.004 108.936C298.644 107.784 299.156 106.333 299.54 104.584C299.924 102.835 300.116 101.085 300.116 99.336C300.116 97.928 299.967 96.712 299.668 95.688C299.412 94.664 299.071 94.152 298.644 94.152ZM41.568 149.768C41.44 150.493 41.2053 151.901 40.864 153.992C40.5653 156.083 40.224 158.408 39.84 160.968C42.3147 160.883 44.5547 160.819 46.56 160.776C48.5653 160.691 49.9093 160.627 50.592 160.584L50.912 161.416L49.248 168.52L38.88 168.584L37.728 178.568L30.816 179.592L30.176 179.08C30.2613 178.44 30.4107 177.16 30.624 175.24C30.88 173.32 31.1787 171.101 31.52 168.584L21.216 168.648L20.768 167.88L22.624 160.904L32.416 160.968L33.824 150.024L40.8 149.32L41.568 149.768ZM86.6805 172.936C86.8938 172.936 87.2565 172.744 87.7685 172.36C88.2805 171.933 89.2192 171.144 90.5845 169.992L91.8005 170.184L92.9525 172.808C89.6672 176.307 87.1712 178.675 85.4645 179.912C83.8005 181.149 82.2432 181.768 80.7925 181.768C78.7872 181.768 77.7845 180.872 77.7845 179.08C77.7845 178.141 78.4458 174.984 79.7685 169.608L79.1925 169.544C77.4005 172.744 75.7578 175.304 74.2645 177.224C72.7712 179.144 71.2352 180.659 69.6565 181.768C67.0538 181.768 65.0058 180.915 63.5125 179.208C62.0618 177.501 61.3365 175.133 61.3365 172.104C61.3365 168.776 62.1045 165.491 63.6405 162.248C65.2192 158.963 67.2245 156.275 69.6565 154.184C72.1312 152.093 74.6058 151.048 77.0805 151.048L81.4965 152.072L82.9685 141.512C83.0112 141.341 83.0325 141.085 83.0325 140.744C83.0325 140.019 82.8405 139.507 82.4565 139.208C82.1152 138.909 81.5392 138.76 80.7285 138.76H78.7445L79.3845 134.344C81.5605 134.344 84.0778 134.259 86.9365 134.088C89.8378 133.917 91.7365 133.789 92.6325 133.704L93.5285 134.792C92.9738 137.565 91.8645 143.283 90.2005 151.944C88.5792 160.605 87.3418 167.539 86.4885 172.744L86.6805 172.936ZM72.0885 173.256C72.8992 173.256 74.1365 171.763 75.8005 168.776C77.5072 165.747 79.0218 162.333 80.3445 158.536C79.7898 158.195 79.0005 157.811 77.9765 157.384C76.9952 156.957 76.0565 156.744 75.1605 156.744C74.4778 156.744 73.7952 157.32 73.1125 158.472C72.4725 159.624 71.9392 161.096 71.5125 162.888C71.0858 164.68 70.8725 166.493 70.8725 168.328C70.8725 169.779 70.9792 170.973 71.1925 171.912C71.4485 172.808 71.7472 173.256 72.0885 173.256ZM118.859 156.936C118.859 158.899 118.326 160.605 117.259 162.056C116.235 163.464 114.571 164.765 112.267 165.96C110.006 167.112 106.955 168.285 103.115 169.48C103.2 171.016 103.563 172.232 104.203 173.128C104.886 173.981 105.803 174.408 106.955 174.408C108.107 174.408 109.195 174.003 110.219 173.192C111.286 172.381 112.246 171.187 113.099 169.608L114.379 169.736L117.003 172.808C115.894 175.325 114.059 177.459 111.499 179.208C108.939 180.915 106.358 181.768 103.755 181.768C100.854 181.768 98.5283 180.744 96.779 178.696C95.0297 176.605 94.155 173.811 94.155 170.312C94.155 166.856 94.9443 163.613 96.523 160.584C98.1017 157.512 100.192 155.059 102.795 153.224C105.398 151.389 108.192 150.472 111.179 150.472C113.568 150.472 115.446 151.048 116.811 152.2C118.176 153.352 118.859 154.931 118.859 156.936ZM108.875 156.936C107.552 156.936 106.379 157.683 105.355 159.176C104.374 160.627 103.691 162.568 103.307 165C108.299 163.293 110.795 161.245 110.795 158.856C110.795 158.259 110.624 157.789 110.283 157.448C109.942 157.107 109.472 156.936 108.875 156.936ZM120.355 177.032C121.805 168.328 123.085 160.328 124.195 153.032C125.347 145.693 125.923 141.661 125.923 140.936C125.923 140.168 125.752 139.613 125.411 139.272C125.069 138.931 124.493 138.76 123.683 138.76H121.635L122.275 134.344C125.048 134.344 129.464 134.131 135.523 133.704L136.419 134.792C134.157 145.373 132.301 154.973 130.851 163.592L131.363 163.656C133.197 160.157 134.797 157.448 136.163 155.528C137.571 153.565 139.021 152.029 140.515 150.92C143.373 150.92 145.592 151.859 147.171 153.736C148.792 155.571 149.603 158.109 149.603 161.352C149.603 164.851 148.835 168.179 147.299 171.336C145.763 174.451 143.715 176.968 141.155 178.888C138.595 180.765 135.864 181.704 132.963 181.704C130.872 181.704 128.717 181.405 126.499 180.808C124.28 180.211 122.509 179.464 121.187 178.568L120.355 177.032ZM138.787 158.728C137.976 158.728 136.76 160.221 135.139 163.208C133.517 166.195 132.045 169.651 130.723 173.576C131.448 174.045 132.259 174.429 133.155 174.728C134.051 175.027 134.797 175.176 135.395 175.176C136.248 175.176 137.037 174.685 137.763 173.704C138.531 172.68 139.128 171.315 139.555 169.608C139.981 167.901 140.195 166.067 140.195 164.104C140.195 162.568 140.045 161.288 139.747 160.264C139.491 159.24 139.171 158.728 138.787 158.728ZM177.118 172.936C177.374 172.936 177.758 172.744 178.27 172.36C178.825 171.933 179.742 171.144 181.022 169.992L182.238 170.184L183.39 172.808C180.062 176.349 177.566 178.739 175.902 179.976C174.238 181.171 172.659 181.768 171.166 181.768C170.227 181.768 169.502 181.533 168.99 181.064C168.478 180.595 168.222 179.933 168.222 179.08C168.222 178.312 168.883 175.155 170.206 169.608L169.63 169.544C167.795 172.787 166.131 175.368 164.638 177.288C163.145 179.165 161.63 180.659 160.094 181.768C157.491 181.768 155.443 180.936 153.95 179.272C152.499 177.565 151.774 175.197 151.774 172.168C151.774 168.797 152.542 165.491 154.078 162.248C155.657 158.963 157.662 156.275 160.094 154.184C162.526 152.093 165.001 151.048 167.518 151.048L172.702 152.2L173.086 150.856L174.046 150.28L180.638 151.112L181.15 152.392C179.145 160.541 177.737 167.325 176.926 172.744L177.118 172.936ZM162.526 173.256C163.337 173.256 164.595 171.741 166.302 168.712C168.051 165.64 169.566 162.248 170.846 158.536C169.95 157.981 169.033 157.555 168.094 157.256C167.155 156.915 166.345 156.744 165.662 156.744C164.937 156.744 164.233 157.32 163.55 158.472C162.91 159.581 162.377 161.053 161.95 162.888C161.523 164.68 161.31 166.493 161.31 168.328C161.31 169.779 161.417 170.973 161.63 171.912C161.886 172.808 162.185 173.256 162.526 173.256ZM203.346 172.68C201.298 175.411 199.357 177.608 197.522 179.272C195.73 180.936 194.343 181.768 193.362 181.768C191.101 181.768 189.351 181.235 188.114 180.168C186.877 179.059 186.258 177.501 186.258 175.496C186.258 175.027 186.279 174.664 186.322 174.408L189.394 156.744L188.882 156.296L185.106 156.232L184.914 155.912L185.362 152.392L190.098 151.688C190.354 149.981 190.567 148.445 190.738 147.08C190.909 145.715 191.015 144.819 191.058 144.392L200.338 142.152L201.042 142.92C200.914 143.432 200.615 144.563 200.146 146.312C199.719 148.061 199.314 149.875 198.93 151.752L205.522 151.688L205.906 152.072L205.202 156.232L198.738 156.168L197.906 156.616L195.218 171.08L195.154 171.72C195.154 172.659 195.581 173.128 196.434 173.128C196.903 173.128 197.458 172.893 198.098 172.424C198.781 171.912 199.719 171.037 200.914 169.8L202.194 169.992L203.346 172.68ZM228.922 156.936C228.922 158.899 228.388 160.605 227.322 162.056C226.298 163.464 224.634 164.765 222.33 165.96C220.068 167.112 217.018 168.285 213.178 169.48C213.263 171.016 213.626 172.232 214.266 173.128C214.948 173.981 215.866 174.408 217.018 174.408C218.17 174.408 219.258 174.003 220.282 173.192C221.348 172.381 222.308 171.187 223.162 169.608L224.442 169.736L227.066 172.808C225.956 175.325 224.122 177.459 221.562 179.208C219.002 180.915 216.42 181.768 213.818 181.768C210.916 181.768 208.591 180.744 206.842 178.696C205.092 176.605 204.218 173.811 204.218 170.312C204.218 166.856 205.007 163.613 206.586 160.584C208.164 157.512 210.255 155.059 212.858 153.224C215.46 151.389 218.255 150.472 221.242 150.472C223.631 150.472 225.508 151.048 226.874 152.2C228.239 153.352 228.922 154.931 228.922 156.936ZM218.938 156.936C217.615 156.936 216.442 157.683 215.418 159.176C214.436 160.627 213.754 162.568 213.37 165C218.362 163.293 220.858 161.245 220.858 158.856C220.858 158.259 220.687 157.789 220.346 157.448C220.004 157.107 219.535 156.936 218.938 156.936Z" fill="#104253"/>
<path d="M43.224 237.512C43.096 238.323 42.84 239.923 42.456 242.312C42.072 244.701 41.688 247.261 41.304 249.992C43.9493 249.949 46.4027 249.885 48.664 249.8C50.968 249.715 52.5253 249.651 53.336 249.608L53.656 250.312L52.504 254.664L40.728 254.728L39.384 266.44L35.032 267.208L34.52 266.824L36.056 254.728L24.472 254.792L24.152 254.152L25.432 249.928L36.632 249.992L38.168 237.64L42.584 237.064L43.224 237.512Z" fill="#F4EFDF"/>
<path d="M74.484 269.768C72.052 269.768 70.1107 268.787 68.66 266.824C67.2093 264.861 66.484 262.216 66.484 258.888C66.484 255.347 67.1667 252.061 68.532 249.032C69.8973 246.003 71.732 243.592 74.036 241.8C76.34 239.965 78.8573 239.048 81.588 239.048C84.148 239.048 86.132 239.923 87.54 241.672C88.9907 243.421 89.716 245.896 89.716 249.096C89.716 252.851 89.0333 256.307 87.668 259.464C86.3453 262.621 84.5107 265.139 82.164 267.016C79.8173 268.851 77.2573 269.768 74.484 269.768ZM77.044 265.608C79.0067 265.608 80.5853 264.413 81.78 262.024C82.9747 259.592 83.572 256.371 83.572 252.36C83.572 249.629 83.1667 247.496 82.356 245.96C81.5453 244.424 80.3933 243.656 78.9 243.656C76.98 243.656 75.4227 244.787 74.228 247.048C73.0333 249.267 72.436 252.211 72.436 255.88C72.436 258.867 72.8413 261.235 73.652 262.984C74.5053 264.733 75.636 265.608 77.044 265.608ZM114.732 263.944C115.031 263.944 115.415 263.773 115.884 263.432C116.353 263.048 117.527 262.024 119.404 260.36L120.364 260.488L121.26 262.344C118.7 264.947 116.652 266.824 115.116 267.976C113.58 269.128 112.343 269.704 111.404 269.704C109.783 269.704 108.972 268.957 108.972 267.464C108.972 266.653 109.164 265.544 109.548 264.136C109.932 262.685 110.487 260.765 111.212 258.376C111.98 255.901 112.577 253.853 113.004 252.232C113.431 250.568 113.644 249.288 113.644 248.392C113.644 247.667 113.452 247.069 113.068 246.6C112.727 246.131 112.257 245.896 111.66 245.896C110.465 245.896 108.844 247.453 106.796 250.568C104.791 253.64 102.764 257.672 100.716 262.664L100.012 267.72C99.9693 268.061 99.3293 268.467 98.092 268.936C96.8973 269.363 95.852 269.576 94.956 269.576L94.38 268.808C95.02 264.84 96.172 257.373 97.836 246.408C99.5427 235.4 100.417 229.256 100.46 227.976C100.503 227.08 100.311 226.44 99.884 226.056C99.5 225.629 98.8387 225.416 97.9 225.416H95.468L95.916 222.408C97.708 222.408 99.82 222.344 102.252 222.216C104.684 222.088 106.284 222.003 107.052 221.96L107.756 222.856C107.543 223.752 107.073 225.821 106.348 229.064C105.665 232.264 104.855 236.232 103.916 240.968C103.02 245.704 102.231 250.312 101.548 254.792L101.868 254.92C103.916 250.824 105.964 247.432 108.012 244.744C110.06 242.013 111.98 240.115 113.772 239.048C115.479 239.048 116.887 239.667 117.996 240.904C119.148 242.099 119.724 243.592 119.724 245.384C119.724 246.451 119.468 247.859 118.956 249.608C118.487 251.315 117.783 253.512 116.844 256.2C116.716 256.541 116.353 257.587 115.756 259.336C115.159 261.085 114.753 262.536 114.54 263.688L114.732 263.944ZM159.353 239.048C159.993 239.475 160.505 240.157 160.889 241.096C161.273 242.035 161.465 243.059 161.465 244.168C161.465 248.563 157.561 256.477 149.753 267.912C145.828 273.629 142.521 277.747 139.833 280.264C137.188 282.824 134.798 284.104 132.665 284.104C131.342 284.104 130.19 283.848 129.209 283.336C128.228 282.867 127.609 282.248 127.353 281.48C127.694 279.389 128.292 277.597 129.145 276.104H130.041C131.364 277.64 132.772 278.408 134.265 278.408C136.74 278.408 139.62 276.253 142.905 271.944C142.094 261.661 141.177 253 140.153 245.96C139.982 245.021 139.726 244.381 139.385 244.04C139.044 243.699 138.489 243.528 137.721 243.528L136.313 243.656C135.545 243.741 135.012 243.784 134.713 243.784L134.905 240.84L145.145 239.432L145.849 240.008C146.574 245.64 146.937 253.064 146.937 262.28V264.84H147.641C150.201 260.659 152.164 257.032 153.529 253.96C154.894 250.845 155.577 248.499 155.577 246.92C155.577 245.981 155.3 245.085 154.745 244.232C154.19 243.336 153.422 242.589 152.441 241.992L152.825 240.52L159.353 239.048ZM184.226 244.488C184.226 247.219 183.053 249.544 180.706 251.464C178.359 253.384 174.413 255.24 168.866 257.032C168.781 259.421 169.122 261.341 169.89 262.792C170.658 264.2 171.746 264.904 173.154 264.904C174.391 264.904 175.607 264.435 176.802 263.496C178.039 262.557 179.085 261.256 179.938 259.592L180.898 259.72L182.37 261.704C181.175 264.051 179.533 265.992 177.442 267.528C175.351 269.021 173.282 269.768 171.234 269.768C168.759 269.768 166.797 268.808 165.346 266.888C163.895 264.925 163.17 262.28 163.17 258.952C163.17 255.667 163.895 252.488 165.346 249.416C166.839 246.344 168.759 243.848 171.106 241.928C173.453 240.008 175.885 239.048 178.402 239.048C180.237 239.048 181.666 239.539 182.69 240.52C183.714 241.459 184.226 242.781 184.226 244.488ZM176.29 243.592C174.711 243.592 173.218 244.595 171.81 246.6C170.402 248.563 169.485 250.973 169.058 253.832C172.429 252.765 174.861 251.635 176.354 250.44C177.89 249.245 178.658 247.837 178.658 246.216C178.658 244.467 177.869 243.592 176.29 243.592ZM207.909 263.944C208.208 263.944 208.613 263.752 209.125 263.368C209.68 262.941 210.853 261.96 212.645 260.424L213.541 260.488L214.501 262.344C211.514 265.288 209.317 267.272 207.909 268.296C206.544 269.277 205.37 269.768 204.389 269.768C203.664 269.768 203.088 269.576 202.661 269.192C202.277 268.851 202.085 268.381 202.085 267.784C202.085 266.76 202.938 262.643 204.645 255.432L204.197 255.368C202.192 259.037 200.293 262.024 198.501 264.328C196.709 266.589 194.853 268.403 192.933 269.768C191.056 269.768 189.562 268.979 188.453 267.4C187.386 265.821 186.853 263.645 186.853 260.872C186.853 257.459 187.578 254.088 189.029 250.76C190.522 247.432 192.421 244.723 194.725 242.632C197.072 240.499 199.44 239.432 201.829 239.432L207.909 240.456L208.421 238.92L208.933 238.728L212.197 239.688L212.709 240.584C211.728 244.168 210.768 248.115 209.829 252.424C208.89 256.733 208.186 260.488 207.717 263.688L207.909 263.944ZM194.597 263.624C195.28 263.624 196.261 262.792 197.541 261.128C198.821 259.421 200.229 257.181 201.765 254.408C203.301 251.592 204.709 248.627 205.989 245.512C205.05 244.957 204.005 244.488 202.853 244.104C201.744 243.72 200.805 243.528 200.037 243.528C198.8 243.528 197.626 244.189 196.517 245.512C195.408 246.835 194.512 248.584 193.829 250.76C193.146 252.936 192.805 255.197 192.805 257.544C192.805 259.293 192.976 260.744 193.317 261.896C193.658 263.048 194.085 263.624 194.597 263.624ZM238.67 263.944C238.968 263.944 239.352 263.773 239.822 263.432C240.291 263.048 241.464 262.024 243.342 260.36L244.302 260.488L245.198 262.344C242.638 264.947 240.59 266.824 239.054 267.976C237.518 269.128 236.28 269.704 235.342 269.704C233.72 269.704 232.91 268.957 232.91 267.464C232.91 266.653 233.102 265.544 233.486 264.136C233.87 262.685 234.424 260.765 235.15 258.376C235.918 255.901 236.515 253.853 236.942 252.232C237.368 250.568 237.582 249.288 237.582 248.392C237.582 247.667 237.39 247.069 237.006 246.6C236.664 246.131 236.195 245.896 235.598 245.896C234.403 245.896 232.782 247.453 230.734 250.568C228.728 253.64 226.702 257.672 224.654 262.664L223.95 267.72C223.907 268.061 223.267 268.467 222.03 268.936C220.835 269.363 219.79 269.576 218.894 269.576L218.318 268.808C218.958 264.84 220.11 257.373 221.774 246.408C223.48 235.4 224.355 229.256 224.398 227.976C224.44 227.08 224.248 226.44 223.822 226.056C223.438 225.629 222.776 225.416 221.838 225.416H219.406L219.854 222.408C221.646 222.408 223.758 222.344 226.19 222.216C228.622 222.088 230.222 222.003 230.99 221.96L231.694 222.856C231.48 223.752 231.011 225.821 230.286 229.064C229.603 232.264 228.792 236.232 227.854 240.968C226.958 245.704 226.168 250.312 225.486 254.792L225.806 254.92C227.854 250.824 229.902 247.432 231.95 244.744C233.998 242.013 235.918 240.115 237.71 239.048C239.416 239.048 240.824 239.667 241.934 240.904C243.086 242.099 243.662 243.592 243.662 245.384C243.662 246.451 243.406 247.859 242.894 249.608C242.424 251.315 241.72 253.512 240.782 256.2C240.654 256.541 240.291 257.587 239.694 259.336C239.096 261.085 238.691 262.536 238.478 263.688L238.67 263.944Z" fill="#E66453"/>
<path d="M304.574 192.7L304.586 192.699C305.175 192.616 305.657 192.531 305.956 192.431C306.033 192.406 306.151 192.363 306.268 192.293C306.328 192.257 306.422 192.195 306.515 192.096C306.607 191.998 306.745 191.813 306.787 191.539C306.885 190.893 306.392 190.557 306.299 190.499C306.153 190.408 306.008 190.365 305.935 190.344C305.638 190.263 305.168 190.22 304.645 190.19C304.084 190.157 303.351 190.134 302.46 190.12C298.899 190.064 292.662 190.151 284.336 190.381C267.675 190.84 242.586 191.873 213.649 193.494C155.784 196.737 82.4804 202.335 30.3924 210.414C29.0657 210.619 28.0086 211.054 27.2845 211.668C26.555 212.288 26.1112 213.154 26.2724 214.092C26.4311 215.016 27.1241 215.698 27.9969 216.085C28.8738 216.473 30.0163 216.614 31.3529 216.463C86.6259 210.221 175.352 200.638 202.232 200.263C232.697 199.992 268.098 197.376 304.574 192.7Z" fill="#104253" stroke="#104253" stroke-width="2" stroke-linecap="round" stroke-linejoin="round"/>
</svg>
